<mxfile host="app.diagrams.net" modified="2022-09-07T07:45:41.531Z" agent="5.0 (Macintosh; Intel Mac OS X 10_15_7) AppleWebKit/537.36 (KHTML, like Gecko) Chrome/104.0.0.0 Safari/537.36" etag="-zGXTnfvFBwimgH-NsOB" version="20.1.1" type="github">
  <diagram id="fFB2qFTE0xAvFDpvdWyk" name="Page-1">
    <mxGraphModel dx="2063" dy="715" grid="1" gridSize="10" guides="1" tooltips="1" connect="1" arrows="1" fold="1" page="1" pageScale="1" pageWidth="827" pageHeight="1169" math="0" shadow="0">
      <root>
        <mxCell id="0" />
        <mxCell id="1" parent="0" />
        <mxCell id="YN9iQ5xHjwX4GJ1VdmRE-1" value="fibonacci.const" style="rounded=1;whiteSpace=wrap;html=1;" vertex="1" parent="1">
          <mxGeometry x="360" y="297.5" width="120" height="35" as="geometry" />
        </mxCell>
        <mxCell id="YN9iQ5xHjwX4GJ1VdmRE-2" value="" style="endArrow=classic;html=1;rounded=0;exitX=1;exitY=0.5;exitDx=0;exitDy=0;" edge="1" parent="1" source="YN9iQ5xHjwX4GJ1VdmRE-4" target="YN9iQ5xHjwX4GJ1VdmRE-1">
          <mxGeometry width="50" height="50" relative="1" as="geometry">
            <mxPoint x="600" y="170" as="sourcePoint" />
            <mxPoint x="650" y="120" as="targetPoint" />
          </mxGeometry>
        </mxCell>
        <mxCell id="YN9iQ5xHjwX4GJ1VdmRE-4" value="1. main_buildconst_fibonacci.js" style="shape=hexagon;perimeter=hexagonPerimeter2;whiteSpace=wrap;html=1;fixedSize=1;fillColor=#d5e8d4;strokeColor=#82b366;" vertex="1" parent="1">
          <mxGeometry x="130" y="290" width="180" height="50" as="geometry" />
        </mxCell>
        <mxCell id="YN9iQ5xHjwX4GJ1VdmRE-5" value="" style="endArrow=classic;html=1;rounded=0;exitX=1;exitY=0.5;exitDx=0;exitDy=0;entryX=0;entryY=0.5;entryDx=0;entryDy=0;" edge="1" parent="1" source="YN9iQ5xHjwX4GJ1VdmRE-9" target="YN9iQ5xHjwX4GJ1VdmRE-8">
          <mxGeometry width="50" height="50" relative="1" as="geometry">
            <mxPoint x="80" y="220" as="sourcePoint" />
            <mxPoint x="160" y="220" as="targetPoint" />
          </mxGeometry>
        </mxCell>
        <mxCell id="YN9iQ5xHjwX4GJ1VdmRE-6" value="fibonacci.commit" style="rounded=1;whiteSpace=wrap;html=1;" vertex="1" parent="1">
          <mxGeometry x="360" y="383.5" width="120" height="35" as="geometry" />
        </mxCell>
        <mxCell id="YN9iQ5xHjwX4GJ1VdmRE-7" value="" style="endArrow=classic;html=1;rounded=0;exitX=1;exitY=0.5;exitDx=0;exitDy=0;" edge="1" parent="1" source="YN9iQ5xHjwX4GJ1VdmRE-8" target="YN9iQ5xHjwX4GJ1VdmRE-6">
          <mxGeometry width="50" height="50" relative="1" as="geometry">
            <mxPoint x="600" y="256" as="sourcePoint" />
            <mxPoint x="650" y="206" as="targetPoint" />
          </mxGeometry>
        </mxCell>
        <mxCell id="YN9iQ5xHjwX4GJ1VdmRE-8" value="2. main_exec_fibonacci.js" style="shape=hexagon;perimeter=hexagonPerimeter2;whiteSpace=wrap;html=1;fixedSize=1;fillColor=#d5e8d4;strokeColor=#82b366;" vertex="1" parent="1">
          <mxGeometry x="130" y="376" width="180" height="50" as="geometry" />
        </mxCell>
        <mxCell id="YN9iQ5xHjwX4GJ1VdmRE-9" value="fibonacci.input.json" style="rounded=1;whiteSpace=wrap;html=1;" vertex="1" parent="1">
          <mxGeometry x="-30" y="383.5" width="120" height="35" as="geometry" />
        </mxCell>
        <mxCell id="YN9iQ5xHjwX4GJ1VdmRE-10" value="3. main_pilverifier.js" style="shape=hexagon;perimeter=hexagonPerimeter2;whiteSpace=wrap;html=1;fixedSize=1;fillColor=#d5e8d4;strokeColor=#82b366;" vertex="1" parent="1">
          <mxGeometry x="560" y="320" width="150" height="50" as="geometry" />
        </mxCell>
        <mxCell id="YN9iQ5xHjwX4GJ1VdmRE-11" value="fibonacci.pil" style="rounded=1;whiteSpace=wrap;html=1;" vertex="1" parent="1">
          <mxGeometry x="353" y="450" width="120" height="35" as="geometry" />
        </mxCell>
        <mxCell id="YN9iQ5xHjwX4GJ1VdmRE-12" value="" style="endArrow=classic;html=1;rounded=0;exitX=1;exitY=0.5;exitDx=0;exitDy=0;entryX=0;entryY=0.25;entryDx=0;entryDy=0;" edge="1" parent="1" source="YN9iQ5xHjwX4GJ1VdmRE-1" target="YN9iQ5xHjwX4GJ1VdmRE-10">
          <mxGeometry width="50" height="50" relative="1" as="geometry">
            <mxPoint x="570" y="280" as="sourcePoint" />
            <mxPoint x="620" y="280" as="targetPoint" />
          </mxGeometry>
        </mxCell>
        <mxCell id="YN9iQ5xHjwX4GJ1VdmRE-13" value="" style="endArrow=classic;html=1;rounded=0;exitX=1;exitY=0.5;exitDx=0;exitDy=0;entryX=0;entryY=0.5;entryDx=0;entryDy=0;" edge="1" parent="1" source="YN9iQ5xHjwX4GJ1VdmRE-6" target="YN9iQ5xHjwX4GJ1VdmRE-10">
          <mxGeometry width="50" height="50" relative="1" as="geometry">
            <mxPoint x="500" y="440" as="sourcePoint" />
            <mxPoint x="589" y="514.7499999999998" as="targetPoint" />
          </mxGeometry>
        </mxCell>
        <mxCell id="YN9iQ5xHjwX4GJ1VdmRE-14" value="" style="endArrow=classic;html=1;rounded=0;exitX=1;exitY=0.5;exitDx=0;exitDy=0;entryX=0;entryY=0.75;entryDx=0;entryDy=0;" edge="1" parent="1" source="YN9iQ5xHjwX4GJ1VdmRE-11" target="YN9iQ5xHjwX4GJ1VdmRE-10">
          <mxGeometry width="50" height="50" relative="1" as="geometry">
            <mxPoint x="540" y="470" as="sourcePoint" />
            <mxPoint x="620" y="470" as="targetPoint" />
          </mxGeometry>
        </mxCell>
        <mxCell id="YN9iQ5xHjwX4GJ1VdmRE-15" value="true/false" style="rounded=1;whiteSpace=wrap;html=1;" vertex="1" parent="1">
          <mxGeometry x="750" y="327.5" width="120" height="35" as="geometry" />
        </mxCell>
        <mxCell id="YN9iQ5xHjwX4GJ1VdmRE-16" value="" style="endArrow=classic;html=1;rounded=0;entryX=0;entryY=0.5;entryDx=0;entryDy=0;exitX=1;exitY=0.5;exitDx=0;exitDy=0;" edge="1" parent="1" source="YN9iQ5xHjwX4GJ1VdmRE-10" target="YN9iQ5xHjwX4GJ1VdmRE-15">
          <mxGeometry width="50" height="50" relative="1" as="geometry">
            <mxPoint x="720" y="350" as="sourcePoint" />
            <mxPoint x="790" y="344.58" as="targetPoint" />
          </mxGeometry>
        </mxCell>
        <mxCell id="YN9iQ5xHjwX4GJ1VdmRE-17" value="4. main_buildconstree.js" style="shape=hexagon;perimeter=hexagonPerimeter2;whiteSpace=wrap;html=1;fixedSize=1;fillColor=#d5e8d4;strokeColor=#82b366;" vertex="1" parent="1">
          <mxGeometry x="560" y="420" width="150" height="45" as="geometry" />
        </mxCell>
        <mxCell id="YN9iQ5xHjwX4GJ1VdmRE-18" value="" style="endArrow=classic;html=1;rounded=0;exitX=1;exitY=0.5;exitDx=0;exitDy=0;entryX=0;entryY=0.25;entryDx=0;entryDy=0;" edge="1" parent="1" source="YN9iQ5xHjwX4GJ1VdmRE-1" target="YN9iQ5xHjwX4GJ1VdmRE-17">
          <mxGeometry width="50" height="50" relative="1" as="geometry">
            <mxPoint x="560" y="570" as="sourcePoint" />
            <mxPoint x="610" y="520" as="targetPoint" />
          </mxGeometry>
        </mxCell>
        <mxCell id="YN9iQ5xHjwX4GJ1VdmRE-19" value="" style="endArrow=classic;html=1;rounded=0;exitX=1;exitY=0.5;exitDx=0;exitDy=0;entryX=0;entryY=0.75;entryDx=0;entryDy=0;" edge="1" parent="1" source="YN9iQ5xHjwX4GJ1VdmRE-11" target="YN9iQ5xHjwX4GJ1VdmRE-17">
          <mxGeometry width="50" height="50" relative="1" as="geometry">
            <mxPoint x="510" y="580" as="sourcePoint" />
            <mxPoint x="560" y="530" as="targetPoint" />
          </mxGeometry>
        </mxCell>
        <mxCell id="YN9iQ5xHjwX4GJ1VdmRE-20" value="fibonacci.starkstruct.json" style="rounded=1;whiteSpace=wrap;html=1;" vertex="1" parent="1">
          <mxGeometry x="350" y="510" width="140" height="35" as="geometry" />
        </mxCell>
        <mxCell id="YN9iQ5xHjwX4GJ1VdmRE-21" value="" style="endArrow=classic;html=1;rounded=0;exitX=1;exitY=0.5;exitDx=0;exitDy=0;entryX=0.115;entryY=0.931;entryDx=0;entryDy=0;entryPerimeter=0;" edge="1" parent="1" source="YN9iQ5xHjwX4GJ1VdmRE-20" target="YN9iQ5xHjwX4GJ1VdmRE-17">
          <mxGeometry width="50" height="50" relative="1" as="geometry">
            <mxPoint x="520" y="570" as="sourcePoint" />
            <mxPoint x="570" y="520" as="targetPoint" />
          </mxGeometry>
        </mxCell>
        <mxCell id="YN9iQ5xHjwX4GJ1VdmRE-22" value="fibonacci.consttree" style="rounded=1;whiteSpace=wrap;html=1;" vertex="1" parent="1">
          <mxGeometry x="750" y="400" width="120" height="35" as="geometry" />
        </mxCell>
        <mxCell id="YN9iQ5xHjwX4GJ1VdmRE-23" value="fibonacci.verkey.json" style="rounded=1;whiteSpace=wrap;html=1;" vertex="1" parent="1">
          <mxGeometry x="750" y="460" width="120" height="35" as="geometry" />
        </mxCell>
        <mxCell id="YN9iQ5xHjwX4GJ1VdmRE-24" value="" style="endArrow=classic;html=1;rounded=0;entryX=0;entryY=0.5;entryDx=0;entryDy=0;exitX=1;exitY=0.25;exitDx=0;exitDy=0;" edge="1" parent="1" source="YN9iQ5xHjwX4GJ1VdmRE-17" target="YN9iQ5xHjwX4GJ1VdmRE-22">
          <mxGeometry width="50" height="50" relative="1" as="geometry">
            <mxPoint x="760" y="430" as="sourcePoint" />
            <mxPoint x="800" y="430" as="targetPoint" />
          </mxGeometry>
        </mxCell>
        <mxCell id="YN9iQ5xHjwX4GJ1VdmRE-25" value="" style="endArrow=classic;html=1;rounded=0;entryX=0;entryY=0.5;entryDx=0;entryDy=0;exitX=1;exitY=0.75;exitDx=0;exitDy=0;" edge="1" parent="1" source="YN9iQ5xHjwX4GJ1VdmRE-17" target="YN9iQ5xHjwX4GJ1VdmRE-23">
          <mxGeometry width="50" height="50" relative="1" as="geometry">
            <mxPoint x="720" y="550" as="sourcePoint" />
            <mxPoint x="779.0000000000005" y="538.75" as="targetPoint" />
          </mxGeometry>
        </mxCell>
        <mxCell id="YN9iQ5xHjwX4GJ1VdmRE-26" value="5. main_prover.js" style="shape=hexagon;perimeter=hexagonPerimeter2;whiteSpace=wrap;html=1;fixedSize=1;fillColor=#d5e8d4;strokeColor=#82b366;" vertex="1" parent="1">
          <mxGeometry x="580" y="545" width="140" height="40" as="geometry" />
        </mxCell>
        <mxCell id="YN9iQ5xHjwX4GJ1VdmRE-27" value="" style="endArrow=classic;html=1;rounded=0;exitX=0.75;exitY=1;exitDx=0;exitDy=0;entryX=0.123;entryY=0.069;entryDx=0;entryDy=0;entryPerimeter=0;" edge="1" parent="1" source="YN9iQ5xHjwX4GJ1VdmRE-1" target="YN9iQ5xHjwX4GJ1VdmRE-26">
          <mxGeometry width="50" height="50" relative="1" as="geometry">
            <mxPoint x="260" y="620" as="sourcePoint" />
            <mxPoint x="310" y="570" as="targetPoint" />
          </mxGeometry>
        </mxCell>
        <mxCell id="YN9iQ5xHjwX4GJ1VdmRE-28" value="" style="endArrow=classic;html=1;rounded=0;entryX=0;entryY=0.25;entryDx=0;entryDy=0;" edge="1" parent="1" target="YN9iQ5xHjwX4GJ1VdmRE-26">
          <mxGeometry width="50" height="50" relative="1" as="geometry">
            <mxPoint x="470" y="420" as="sourcePoint" />
            <mxPoint x="550" y="640" as="targetPoint" />
          </mxGeometry>
        </mxCell>
        <mxCell id="YN9iQ5xHjwX4GJ1VdmRE-29" value="" style="endArrow=classic;html=1;rounded=0;exitX=1;exitY=0.75;exitDx=0;exitDy=0;entryX=0;entryY=0.5;entryDx=0;entryDy=0;" edge="1" parent="1" source="YN9iQ5xHjwX4GJ1VdmRE-11" target="YN9iQ5xHjwX4GJ1VdmRE-26">
          <mxGeometry width="50" height="50" relative="1" as="geometry">
            <mxPoint x="420" y="690" as="sourcePoint" />
            <mxPoint x="470" y="640" as="targetPoint" />
          </mxGeometry>
        </mxCell>
        <mxCell id="YN9iQ5xHjwX4GJ1VdmRE-30" value="" style="endArrow=classic;html=1;rounded=0;exitX=1;exitY=0.75;exitDx=0;exitDy=0;entryX=0;entryY=0.75;entryDx=0;entryDy=0;" edge="1" parent="1" source="YN9iQ5xHjwX4GJ1VdmRE-20" target="YN9iQ5xHjwX4GJ1VdmRE-26">
          <mxGeometry width="50" height="50" relative="1" as="geometry">
            <mxPoint x="520" y="660" as="sourcePoint" />
            <mxPoint x="570" y="610" as="targetPoint" />
          </mxGeometry>
        </mxCell>
        <mxCell id="YN9iQ5xHjwX4GJ1VdmRE-31" value="" style="endArrow=classic;html=1;rounded=0;exitX=0;exitY=0.75;exitDx=0;exitDy=0;entryX=0.5;entryY=0;entryDx=0;entryDy=0;" edge="1" parent="1" source="YN9iQ5xHjwX4GJ1VdmRE-22" target="YN9iQ5xHjwX4GJ1VdmRE-26">
          <mxGeometry width="50" height="50" relative="1" as="geometry">
            <mxPoint x="580" y="670" as="sourcePoint" />
            <mxPoint x="663.75" y="652.5" as="targetPoint" />
          </mxGeometry>
        </mxCell>
        <mxCell id="YN9iQ5xHjwX4GJ1VdmRE-32" value="fibonacci.proof.json" style="rounded=1;whiteSpace=wrap;html=1;" vertex="1" parent="1">
          <mxGeometry x="440" y="620" width="120" height="35" as="geometry" />
        </mxCell>
        <mxCell id="YN9iQ5xHjwX4GJ1VdmRE-33" value="fibonacci.proof.zkin.json" style="rounded=1;whiteSpace=wrap;html=1;" vertex="1" parent="1">
          <mxGeometry x="582.5" y="620" width="135" height="35" as="geometry" />
        </mxCell>
        <mxCell id="YN9iQ5xHjwX4GJ1VdmRE-34" value="fibonacci.public.json" style="rounded=1;whiteSpace=wrap;html=1;" vertex="1" parent="1">
          <mxGeometry x="730" y="620" width="120" height="35" as="geometry" />
        </mxCell>
        <mxCell id="YN9iQ5xHjwX4GJ1VdmRE-35" value="" style="endArrow=classic;html=1;rounded=0;exitX=0.375;exitY=1;exitDx=0;exitDy=0;entryX=0.5;entryY=0;entryDx=0;entryDy=0;" edge="1" parent="1" source="YN9iQ5xHjwX4GJ1VdmRE-26" target="YN9iQ5xHjwX4GJ1VdmRE-32">
          <mxGeometry width="50" height="50" relative="1" as="geometry">
            <mxPoint x="340" y="670" as="sourcePoint" />
            <mxPoint x="390" y="620" as="targetPoint" />
          </mxGeometry>
        </mxCell>
        <mxCell id="YN9iQ5xHjwX4GJ1VdmRE-36" value="" style="endArrow=classic;html=1;rounded=0;entryX=0.5;entryY=0;entryDx=0;entryDy=0;exitX=0.5;exitY=1;exitDx=0;exitDy=0;" edge="1" parent="1" source="YN9iQ5xHjwX4GJ1VdmRE-26" target="YN9iQ5xHjwX4GJ1VdmRE-33">
          <mxGeometry width="50" height="50" relative="1" as="geometry">
            <mxPoint x="650" y="590" as="sourcePoint" />
            <mxPoint x="447.5" y="785" as="targetPoint" />
          </mxGeometry>
        </mxCell>
        <mxCell id="YN9iQ5xHjwX4GJ1VdmRE-37" value="" style="endArrow=classic;html=1;rounded=0;entryX=0.5;entryY=0;entryDx=0;entryDy=0;exitX=0.683;exitY=0.996;exitDx=0;exitDy=0;exitPerimeter=0;" edge="1" parent="1" source="YN9iQ5xHjwX4GJ1VdmRE-26" target="YN9iQ5xHjwX4GJ1VdmRE-34">
          <mxGeometry width="50" height="50" relative="1" as="geometry">
            <mxPoint x="700" y="730" as="sourcePoint" />
            <mxPoint x="700" y="785" as="targetPoint" />
          </mxGeometry>
        </mxCell>
        <mxCell id="YN9iQ5xHjwX4GJ1VdmRE-38" value="6. main_verifier.js" style="shape=hexagon;perimeter=hexagonPerimeter2;whiteSpace=wrap;html=1;fixedSize=1;fillColor=#d5e8d4;strokeColor=#82b366;" vertex="1" parent="1">
          <mxGeometry x="577.5" y="710" width="140" height="40" as="geometry" />
        </mxCell>
        <mxCell id="YN9iQ5xHjwX4GJ1VdmRE-42" value="" style="curved=1;endArrow=classic;html=1;rounded=0;entryX=0;entryY=0.5;entryDx=0;entryDy=0;exitX=0;exitY=0.5;exitDx=0;exitDy=0;" edge="1" parent="1" source="YN9iQ5xHjwX4GJ1VdmRE-11" target="YN9iQ5xHjwX4GJ1VdmRE-38">
          <mxGeometry width="50" height="50" relative="1" as="geometry">
            <mxPoint x="350" y="470" as="sourcePoint" />
            <mxPoint x="210" y="630" as="targetPoint" />
            <Array as="points">
              <mxPoint x="220" y="590" />
              <mxPoint x="370" y="710" />
            </Array>
          </mxGeometry>
        </mxCell>
        <mxCell id="YN9iQ5xHjwX4GJ1VdmRE-43" value="" style="curved=1;endArrow=classic;html=1;rounded=0;exitX=0.25;exitY=1;exitDx=0;exitDy=0;entryX=0;entryY=0.25;entryDx=0;entryDy=0;" edge="1" parent="1" source="YN9iQ5xHjwX4GJ1VdmRE-20" target="YN9iQ5xHjwX4GJ1VdmRE-38">
          <mxGeometry width="50" height="50" relative="1" as="geometry">
            <mxPoint x="160" y="700" as="sourcePoint" />
            <mxPoint x="210" y="650" as="targetPoint" />
            <Array as="points">
              <mxPoint x="350" y="600" />
              <mxPoint x="370" y="660" />
            </Array>
          </mxGeometry>
        </mxCell>
        <mxCell id="YN9iQ5xHjwX4GJ1VdmRE-44" value="" style="endArrow=classic;html=1;rounded=0;entryX=0.375;entryY=0;entryDx=0;entryDy=0;" edge="1" parent="1" source="YN9iQ5xHjwX4GJ1VdmRE-32" target="YN9iQ5xHjwX4GJ1VdmRE-38">
          <mxGeometry width="50" height="50" relative="1" as="geometry">
            <mxPoint x="470" y="810" as="sourcePoint" />
            <mxPoint x="520" y="760" as="targetPoint" />
          </mxGeometry>
        </mxCell>
        <mxCell id="YN9iQ5xHjwX4GJ1VdmRE-45" value="" style="endArrow=classic;html=1;rounded=0;entryX=0.625;entryY=0;entryDx=0;entryDy=0;exitX=0.5;exitY=1;exitDx=0;exitDy=0;" edge="1" parent="1" source="YN9iQ5xHjwX4GJ1VdmRE-34" target="YN9iQ5xHjwX4GJ1VdmRE-38">
          <mxGeometry width="50" height="50" relative="1" as="geometry">
            <mxPoint x="550" y="790" as="sourcePoint" />
            <mxPoint x="648.6206896551726" y="845" as="targetPoint" />
          </mxGeometry>
        </mxCell>
        <mxCell id="YN9iQ5xHjwX4GJ1VdmRE-46" value="" style="curved=1;endArrow=classic;html=1;rounded=0;exitX=0.75;exitY=1;exitDx=0;exitDy=0;entryX=1;entryY=0.5;entryDx=0;entryDy=0;" edge="1" parent="1" source="YN9iQ5xHjwX4GJ1VdmRE-23" target="YN9iQ5xHjwX4GJ1VdmRE-38">
          <mxGeometry width="50" height="50" relative="1" as="geometry">
            <mxPoint x="930" y="740" as="sourcePoint" />
            <mxPoint x="720" y="730" as="targetPoint" />
            <Array as="points">
              <mxPoint x="870" y="660" />
              <mxPoint x="860" y="680" />
              <mxPoint x="790" y="720" />
            </Array>
          </mxGeometry>
        </mxCell>
        <mxCell id="YN9iQ5xHjwX4GJ1VdmRE-47" value="true/false" style="rounded=1;whiteSpace=wrap;html=1;" vertex="1" parent="1">
          <mxGeometry x="587.5" y="780" width="120" height="35" as="geometry" />
        </mxCell>
        <mxCell id="YN9iQ5xHjwX4GJ1VdmRE-48" value="" style="endArrow=classic;html=1;rounded=0;exitX=0.5;exitY=1;exitDx=0;exitDy=0;entryX=0.5;entryY=0;entryDx=0;entryDy=0;" edge="1" parent="1" source="YN9iQ5xHjwX4GJ1VdmRE-38" target="YN9iQ5xHjwX4GJ1VdmRE-47">
          <mxGeometry width="50" height="50" relative="1" as="geometry">
            <mxPoint x="430" y="820" as="sourcePoint" />
            <mxPoint x="480" y="770" as="targetPoint" />
          </mxGeometry>
        </mxCell>
        <mxCell id="YN9iQ5xHjwX4GJ1VdmRE-49" value="7. main_pil2circom.js" style="shape=hexagon;perimeter=hexagonPerimeter2;whiteSpace=wrap;html=1;fixedSize=1;fillColor=#d5e8d4;strokeColor=#82b366;" vertex="1" parent="1">
          <mxGeometry x="40" y="640" width="140" height="40" as="geometry" />
        </mxCell>
        <mxCell id="YN9iQ5xHjwX4GJ1VdmRE-50" value="" style="endArrow=classic;html=1;rounded=0;entryX=0.457;entryY=0.027;entryDx=0;entryDy=0;entryPerimeter=0;" edge="1" parent="1" target="YN9iQ5xHjwX4GJ1VdmRE-49">
          <mxGeometry width="50" height="50" relative="1" as="geometry">
            <mxPoint x="350" y="470" as="sourcePoint" />
            <mxPoint x="170" y="520" as="targetPoint" />
          </mxGeometry>
        </mxCell>
        <mxCell id="YN9iQ5xHjwX4GJ1VdmRE-51" value="" style="endArrow=classic;html=1;rounded=0;entryX=1;entryY=0.25;entryDx=0;entryDy=0;exitX=0;exitY=0.5;exitDx=0;exitDy=0;" edge="1" parent="1" source="YN9iQ5xHjwX4GJ1VdmRE-20" target="YN9iQ5xHjwX4GJ1VdmRE-49">
          <mxGeometry width="50" height="50" relative="1" as="geometry">
            <mxPoint x="260" y="710" as="sourcePoint" />
            <mxPoint x="13.97999999999979" y="881.0800000000002" as="targetPoint" />
          </mxGeometry>
        </mxCell>
        <mxCell id="YN9iQ5xHjwX4GJ1VdmRE-53" value="" style="curved=1;endArrow=classic;html=1;rounded=0;entryX=1;entryY=0.5;entryDx=0;entryDy=0;exitX=0;exitY=0.75;exitDx=0;exitDy=0;" edge="1" parent="1" source="YN9iQ5xHjwX4GJ1VdmRE-23" target="YN9iQ5xHjwX4GJ1VdmRE-49">
          <mxGeometry width="50" height="50" relative="1" as="geometry">
            <mxPoint x="250" y="810" as="sourcePoint" />
            <mxPoint x="300" y="760" as="targetPoint" />
            <Array as="points">
              <mxPoint x="630" y="520" />
              <mxPoint x="560" y="520" />
              <mxPoint x="490" y="550" />
              <mxPoint x="250" y="660" />
            </Array>
          </mxGeometry>
        </mxCell>
        <mxCell id="YN9iQ5xHjwX4GJ1VdmRE-54" value="fibonacci.verifier.circom" style="rounded=1;whiteSpace=wrap;html=1;" vertex="1" parent="1">
          <mxGeometry x="40" y="715" width="140" height="35" as="geometry" />
        </mxCell>
        <mxCell id="YN9iQ5xHjwX4GJ1VdmRE-55" value="" style="endArrow=classic;html=1;rounded=0;exitX=0.5;exitY=1;exitDx=0;exitDy=0;" edge="1" parent="1" source="YN9iQ5xHjwX4GJ1VdmRE-49" target="YN9iQ5xHjwX4GJ1VdmRE-54">
          <mxGeometry width="50" height="50" relative="1" as="geometry">
            <mxPoint x="150" y="850" as="sourcePoint" />
            <mxPoint x="200" y="800" as="targetPoint" />
          </mxGeometry>
        </mxCell>
        <mxCell id="YN9iQ5xHjwX4GJ1VdmRE-56" value="8. circom" style="shape=hexagon;perimeter=hexagonPerimeter2;whiteSpace=wrap;html=1;fixedSize=1;fillColor=#d5e8d4;strokeColor=#82b366;" vertex="1" parent="1">
          <mxGeometry x="40" y="790" width="140" height="40" as="geometry" />
        </mxCell>
        <mxCell id="YN9iQ5xHjwX4GJ1VdmRE-57" value="" style="endArrow=classic;html=1;rounded=0;exitX=0.5;exitY=1;exitDx=0;exitDy=0;entryX=0.5;entryY=0;entryDx=0;entryDy=0;" edge="1" parent="1" source="YN9iQ5xHjwX4GJ1VdmRE-54" target="YN9iQ5xHjwX4GJ1VdmRE-56">
          <mxGeometry width="50" height="50" relative="1" as="geometry">
            <mxPoint x="10" y="820" as="sourcePoint" />
            <mxPoint x="60" y="770" as="targetPoint" />
          </mxGeometry>
        </mxCell>
        <mxCell id="YN9iQ5xHjwX4GJ1VdmRE-58" value="fibonacci.verifier.r1cs" style="rounded=1;whiteSpace=wrap;html=1;" vertex="1" parent="1">
          <mxGeometry x="242" y="850" width="140" height="35" as="geometry" />
        </mxCell>
        <mxCell id="YN9iQ5xHjwX4GJ1VdmRE-59" value="fibonacci.verifier.sym" style="rounded=1;whiteSpace=wrap;html=1;" vertex="1" parent="1">
          <mxGeometry x="242" y="755" width="140" height="35" as="geometry" />
        </mxCell>
        <mxCell id="YN9iQ5xHjwX4GJ1VdmRE-60" value="fibonacci.verifier_js" style="rounded=1;whiteSpace=wrap;html=1;" vertex="1" parent="1">
          <mxGeometry x="242" y="800" width="140" height="35" as="geometry" />
        </mxCell>
        <mxCell id="YN9iQ5xHjwX4GJ1VdmRE-62" value="" style="endArrow=classic;html=1;rounded=0;exitX=1;exitY=0.75;exitDx=0;exitDy=0;entryX=0;entryY=0.5;entryDx=0;entryDy=0;" edge="1" parent="1" source="YN9iQ5xHjwX4GJ1VdmRE-56" target="YN9iQ5xHjwX4GJ1VdmRE-58">
          <mxGeometry width="50" height="50" relative="1" as="geometry">
            <mxPoint x="180" y="800" as="sourcePoint" />
            <mxPoint x="230" y="750" as="targetPoint" />
          </mxGeometry>
        </mxCell>
        <mxCell id="YN9iQ5xHjwX4GJ1VdmRE-63" value="" style="endArrow=classic;html=1;rounded=0;exitX=1;exitY=0.25;exitDx=0;exitDy=0;entryX=0;entryY=0.5;entryDx=0;entryDy=0;" edge="1" parent="1" source="YN9iQ5xHjwX4GJ1VdmRE-56" target="YN9iQ5xHjwX4GJ1VdmRE-59">
          <mxGeometry width="50" height="50" relative="1" as="geometry">
            <mxPoint x="180" y="860" as="sourcePoint" />
            <mxPoint x="240" y="810" as="targetPoint" />
          </mxGeometry>
        </mxCell>
        <mxCell id="YN9iQ5xHjwX4GJ1VdmRE-64" value="" style="endArrow=classic;html=1;rounded=0;entryX=0;entryY=0.5;entryDx=0;entryDy=0;" edge="1" parent="1" target="YN9iQ5xHjwX4GJ1VdmRE-60">
          <mxGeometry width="50" height="50" relative="1" as="geometry">
            <mxPoint x="180" y="810" as="sourcePoint" />
            <mxPoint x="200" y="880" as="targetPoint" />
          </mxGeometry>
        </mxCell>
        <mxCell id="YN9iQ5xHjwX4GJ1VdmRE-66" value="ffibonacci.verifier.wasm" style="rounded=1;whiteSpace=wrap;html=1;" vertex="1" parent="1">
          <mxGeometry x="430" y="790" width="140" height="35" as="geometry" />
        </mxCell>
        <mxCell id="YN9iQ5xHjwX4GJ1VdmRE-67" value="&lt;div&gt;generate_witness.js&lt;/div&gt;" style="rounded=1;whiteSpace=wrap;html=1;" vertex="1" parent="1">
          <mxGeometry x="430" y="835" width="140" height="35" as="geometry" />
        </mxCell>
        <mxCell id="YN9iQ5xHjwX4GJ1VdmRE-68" value="witness_calculator.js" style="rounded=1;whiteSpace=wrap;html=1;" vertex="1" parent="1">
          <mxGeometry x="430" y="880" width="140" height="35" as="geometry" />
        </mxCell>
        <mxCell id="YN9iQ5xHjwX4GJ1VdmRE-69" value="" style="endArrow=classic;html=1;rounded=0;entryX=0;entryY=0.5;entryDx=0;entryDy=0;exitX=1;exitY=0.5;exitDx=0;exitDy=0;" edge="1" parent="1" source="YN9iQ5xHjwX4GJ1VdmRE-60" target="YN9iQ5xHjwX4GJ1VdmRE-66">
          <mxGeometry width="50" height="50" relative="1" as="geometry">
            <mxPoint x="380" y="850" as="sourcePoint" />
            <mxPoint x="350.75" y="988.75" as="targetPoint" />
          </mxGeometry>
        </mxCell>
        <mxCell id="YN9iQ5xHjwX4GJ1VdmRE-70" value="" style="endArrow=classic;html=1;rounded=0;exitX=1;exitY=0.5;exitDx=0;exitDy=0;entryX=0;entryY=0.5;entryDx=0;entryDy=0;" edge="1" parent="1" source="YN9iQ5xHjwX4GJ1VdmRE-60" target="YN9iQ5xHjwX4GJ1VdmRE-67">
          <mxGeometry width="50" height="50" relative="1" as="geometry">
            <mxPoint x="360" y="970" as="sourcePoint" />
            <mxPoint x="410" y="920" as="targetPoint" />
          </mxGeometry>
        </mxCell>
        <mxCell id="YN9iQ5xHjwX4GJ1VdmRE-71" value="" style="endArrow=classic;html=1;rounded=0;exitX=1;exitY=0.75;exitDx=0;exitDy=0;entryX=0;entryY=0.5;entryDx=0;entryDy=0;" edge="1" parent="1" source="YN9iQ5xHjwX4GJ1VdmRE-60" target="YN9iQ5xHjwX4GJ1VdmRE-68">
          <mxGeometry width="50" height="50" relative="1" as="geometry">
            <mxPoint x="370" y="980" as="sourcePoint" />
            <mxPoint x="420" y="930" as="targetPoint" />
          </mxGeometry>
        </mxCell>
        <mxCell id="YN9iQ5xHjwX4GJ1VdmRE-74" value="9. main_compressor12_setup.js" style="shape=hexagon;perimeter=hexagonPerimeter2;whiteSpace=wrap;html=1;fixedSize=1;fillColor=#d5e8d4;strokeColor=#82b366;" vertex="1" parent="1">
          <mxGeometry x="212" y="930" width="200" height="40" as="geometry" />
        </mxCell>
        <mxCell id="YN9iQ5xHjwX4GJ1VdmRE-75" value="" style="endArrow=classic;html=1;rounded=0;exitX=0.5;exitY=1;exitDx=0;exitDy=0;entryX=0.5;entryY=0;entryDx=0;entryDy=0;" edge="1" parent="1" source="YN9iQ5xHjwX4GJ1VdmRE-58" target="YN9iQ5xHjwX4GJ1VdmRE-74">
          <mxGeometry width="50" height="50" relative="1" as="geometry">
            <mxPoint x="80" y="960" as="sourcePoint" />
            <mxPoint x="130" y="910" as="targetPoint" />
          </mxGeometry>
        </mxCell>
        <mxCell id="YN9iQ5xHjwX4GJ1VdmRE-76" value="fibonacci.c12.pil" style="rounded=1;whiteSpace=wrap;html=1;" vertex="1" parent="1">
          <mxGeometry x="90" y="1010" width="140" height="35" as="geometry" />
        </mxCell>
        <mxCell id="YN9iQ5xHjwX4GJ1VdmRE-77" value="&lt;div&gt;fibonacci.c12.const&lt;/div&gt;" style="rounded=1;whiteSpace=wrap;html=1;" vertex="1" parent="1">
          <mxGeometry x="242" y="1010" width="140" height="35" as="geometry" />
        </mxCell>
        <mxCell id="YN9iQ5xHjwX4GJ1VdmRE-78" value="fibonacci.c12.exec" style="rounded=1;whiteSpace=wrap;html=1;" vertex="1" parent="1">
          <mxGeometry x="400" y="1010" width="140" height="35" as="geometry" />
        </mxCell>
        <mxCell id="YN9iQ5xHjwX4GJ1VdmRE-79" value="" style="endArrow=classic;html=1;rounded=0;exitX=0.375;exitY=1;exitDx=0;exitDy=0;entryX=0.5;entryY=0;entryDx=0;entryDy=0;" edge="1" parent="1" source="YN9iQ5xHjwX4GJ1VdmRE-74" target="YN9iQ5xHjwX4GJ1VdmRE-76">
          <mxGeometry width="50" height="50" relative="1" as="geometry">
            <mxPoint x="90" y="1000" as="sourcePoint" />
            <mxPoint x="140" y="950" as="targetPoint" />
          </mxGeometry>
        </mxCell>
        <mxCell id="YN9iQ5xHjwX4GJ1VdmRE-80" value="" style="endArrow=classic;html=1;rounded=0;exitX=0.5;exitY=1;exitDx=0;exitDy=0;entryX=0.5;entryY=0;entryDx=0;entryDy=0;" edge="1" parent="1" source="YN9iQ5xHjwX4GJ1VdmRE-74" target="YN9iQ5xHjwX4GJ1VdmRE-77">
          <mxGeometry width="50" height="50" relative="1" as="geometry">
            <mxPoint x="650" y="960" as="sourcePoint" />
            <mxPoint x="505" y="1010" as="targetPoint" />
          </mxGeometry>
        </mxCell>
        <mxCell id="YN9iQ5xHjwX4GJ1VdmRE-81" value="" style="endArrow=classic;html=1;rounded=0;exitX=0.625;exitY=1;exitDx=0;exitDy=0;entryX=0.5;entryY=0;entryDx=0;entryDy=0;" edge="1" parent="1" source="YN9iQ5xHjwX4GJ1VdmRE-74" target="YN9iQ5xHjwX4GJ1VdmRE-78">
          <mxGeometry width="50" height="50" relative="1" as="geometry">
            <mxPoint x="600" y="960" as="sourcePoint" />
            <mxPoint x="600" y="1010" as="targetPoint" />
          </mxGeometry>
        </mxCell>
        <mxCell id="YN9iQ5xHjwX4GJ1VdmRE-82" value="fibonacci.c12.starkstruct.json" style="rounded=1;whiteSpace=wrap;html=1;" vertex="1" parent="1">
          <mxGeometry x="-100" y="1010" width="170" height="35" as="geometry" />
        </mxCell>
        <mxCell id="YN9iQ5xHjwX4GJ1VdmRE-83" value="10. main_genstarkinfo.js" style="shape=hexagon;perimeter=hexagonPerimeter2;whiteSpace=wrap;html=1;fixedSize=1;fillColor=#d5e8d4;strokeColor=#82b366;" vertex="1" parent="1">
          <mxGeometry x="-20" y="1090" width="170" height="40" as="geometry" />
        </mxCell>
        <mxCell id="YN9iQ5xHjwX4GJ1VdmRE-84" value="" style="endArrow=classic;html=1;rounded=0;exitX=0.5;exitY=1;exitDx=0;exitDy=0;entryX=0.375;entryY=0;entryDx=0;entryDy=0;" edge="1" parent="1" source="YN9iQ5xHjwX4GJ1VdmRE-82" target="YN9iQ5xHjwX4GJ1VdmRE-83">
          <mxGeometry width="50" height="50" relative="1" as="geometry">
            <mxPoint x="-100" y="1130" as="sourcePoint" />
            <mxPoint x="-50" y="1080" as="targetPoint" />
          </mxGeometry>
        </mxCell>
        <mxCell id="YN9iQ5xHjwX4GJ1VdmRE-85" value="" style="endArrow=classic;html=1;rounded=0;exitX=0.5;exitY=1;exitDx=0;exitDy=0;entryX=0.625;entryY=0;entryDx=0;entryDy=0;" edge="1" parent="1" source="YN9iQ5xHjwX4GJ1VdmRE-76" target="YN9iQ5xHjwX4GJ1VdmRE-83">
          <mxGeometry width="50" height="50" relative="1" as="geometry">
            <mxPoint x="290" y="1100" as="sourcePoint" />
            <mxPoint x="360" y="1135" as="targetPoint" />
          </mxGeometry>
        </mxCell>
        <mxCell id="YN9iQ5xHjwX4GJ1VdmRE-86" value="fibonacci.c12.starkstruct.json" style="rounded=1;whiteSpace=wrap;html=1;" vertex="1" parent="1">
          <mxGeometry x="-20" y="1169" width="170" height="35" as="geometry" />
        </mxCell>
        <mxCell id="YN9iQ5xHjwX4GJ1VdmRE-87" value="" style="endArrow=classic;html=1;rounded=0;exitX=0.5;exitY=1;exitDx=0;exitDy=0;" edge="1" parent="1" source="YN9iQ5xHjwX4GJ1VdmRE-83" target="YN9iQ5xHjwX4GJ1VdmRE-86">
          <mxGeometry width="50" height="50" relative="1" as="geometry">
            <mxPoint x="65" y="1110" as="sourcePoint" />
            <mxPoint x="75" y="1150" as="targetPoint" />
          </mxGeometry>
        </mxCell>
        <mxCell id="YN9iQ5xHjwX4GJ1VdmRE-88" value="11. main_compressor12_exec.js" style="shape=hexagon;perimeter=hexagonPerimeter2;whiteSpace=wrap;html=1;fixedSize=1;fillColor=#d5e8d4;strokeColor=#82b366;" vertex="1" parent="1">
          <mxGeometry x="213" y="1090" width="198" height="40" as="geometry" />
        </mxCell>
        <mxCell id="YN9iQ5xHjwX4GJ1VdmRE-89" value="" style="endArrow=classic;html=1;rounded=0;exitX=0.75;exitY=1;exitDx=0;exitDy=0;entryX=0.375;entryY=0;entryDx=0;entryDy=0;" edge="1" parent="1" source="YN9iQ5xHjwX4GJ1VdmRE-76" target="YN9iQ5xHjwX4GJ1VdmRE-88">
          <mxGeometry width="50" height="50" relative="1" as="geometry">
            <mxPoint x="-120" y="1150" as="sourcePoint" />
            <mxPoint x="-70" y="1100" as="targetPoint" />
          </mxGeometry>
        </mxCell>
        <mxCell id="YN9iQ5xHjwX4GJ1VdmRE-90" value="" style="endArrow=classic;html=1;rounded=0;exitX=0.25;exitY=1;exitDx=0;exitDy=0;entryX=0.625;entryY=0;entryDx=0;entryDy=0;" edge="1" parent="1" source="YN9iQ5xHjwX4GJ1VdmRE-78" target="YN9iQ5xHjwX4GJ1VdmRE-88">
          <mxGeometry width="50" height="50" relative="1" as="geometry">
            <mxPoint x="500" y="1110" as="sourcePoint" />
            <mxPoint x="591.25" y="1155" as="targetPoint" />
          </mxGeometry>
        </mxCell>
        <mxCell id="YN9iQ5xHjwX4GJ1VdmRE-91" value="" style="curved=1;endArrow=classic;html=1;rounded=0;entryX=1;entryY=0.75;entryDx=0;entryDy=0;exitX=0.75;exitY=1;exitDx=0;exitDy=0;" edge="1" parent="1" source="YN9iQ5xHjwX4GJ1VdmRE-33" target="YN9iQ5xHjwX4GJ1VdmRE-88">
          <mxGeometry width="50" height="50" relative="1" as="geometry">
            <mxPoint x="800" y="700" as="sourcePoint" />
            <mxPoint x="630" y="1120" as="targetPoint" />
            <Array as="points">
              <mxPoint x="740" y="690" />
              <mxPoint x="760" y="730" />
              <mxPoint x="710" y="870" />
              <mxPoint x="580" y="1130" />
            </Array>
          </mxGeometry>
        </mxCell>
        <mxCell id="YN9iQ5xHjwX4GJ1VdmRE-92" value="" style="curved=1;endArrow=classic;html=1;rounded=0;exitX=1;exitY=0.5;exitDx=0;exitDy=0;entryX=1;entryY=0.25;entryDx=0;entryDy=0;" edge="1" parent="1" source="YN9iQ5xHjwX4GJ1VdmRE-66" target="YN9iQ5xHjwX4GJ1VdmRE-88">
          <mxGeometry width="50" height="50" relative="1" as="geometry">
            <mxPoint x="690" y="1130" as="sourcePoint" />
            <mxPoint x="740" y="1080" as="targetPoint" />
            <Array as="points">
              <mxPoint x="600" y="910" />
              <mxPoint x="580" y="1020" />
              <mxPoint x="560" y="1060" />
            </Array>
          </mxGeometry>
        </mxCell>
        <mxCell id="YN9iQ5xHjwX4GJ1VdmRE-93" value="fibonacci.c12.commit" style="rounded=1;whiteSpace=wrap;html=1;" vertex="1" parent="1">
          <mxGeometry x="227" y="1169" width="170" height="35" as="geometry" />
        </mxCell>
        <mxCell id="YN9iQ5xHjwX4GJ1VdmRE-94" value="" style="endArrow=classic;html=1;rounded=0;exitX=0.5;exitY=1;exitDx=0;exitDy=0;entryX=0.5;entryY=0;entryDx=0;entryDy=0;" edge="1" parent="1" source="YN9iQ5xHjwX4GJ1VdmRE-88" target="YN9iQ5xHjwX4GJ1VdmRE-93">
          <mxGeometry width="50" height="50" relative="1" as="geometry">
            <mxPoint x="280" y="1290" as="sourcePoint" />
            <mxPoint x="330" y="1240" as="targetPoint" />
          </mxGeometry>
        </mxCell>
        <mxCell id="YN9iQ5xHjwX4GJ1VdmRE-98" value="12. main_buildconsttree.js" style="shape=hexagon;perimeter=hexagonPerimeter2;whiteSpace=wrap;html=1;fixedSize=1;fillColor=#d5e8d4;strokeColor=#82b366;" vertex="1" parent="1">
          <mxGeometry x="480" y="1150" width="198" height="40" as="geometry" />
        </mxCell>
        <mxCell id="YN9iQ5xHjwX4GJ1VdmRE-99" value="" style="curved=1;endArrow=classic;html=1;rounded=0;entryX=0.375;entryY=0;entryDx=0;entryDy=0;exitX=0.955;exitY=1;exitDx=0;exitDy=0;exitPerimeter=0;" edge="1" parent="1" source="YN9iQ5xHjwX4GJ1VdmRE-76" target="YN9iQ5xHjwX4GJ1VdmRE-98">
          <mxGeometry width="50" height="50" relative="1" as="geometry">
            <mxPoint x="640" y="1110" as="sourcePoint" />
            <mxPoint x="690" y="1060" as="targetPoint" />
            <Array as="points">
              <mxPoint x="460" y="1090" />
            </Array>
          </mxGeometry>
        </mxCell>
        <mxCell id="YN9iQ5xHjwX4GJ1VdmRE-100" value="" style="curved=1;endArrow=classic;html=1;rounded=0;entryX=0.625;entryY=0;entryDx=0;entryDy=0;exitX=0.75;exitY=1;exitDx=0;exitDy=0;" edge="1" parent="1" source="YN9iQ5xHjwX4GJ1VdmRE-77" target="YN9iQ5xHjwX4GJ1VdmRE-98">
          <mxGeometry width="50" height="50" relative="1" as="geometry">
            <mxPoint x="730" y="1120" as="sourcePoint" />
            <mxPoint x="780" y="1070" as="targetPoint" />
            <Array as="points">
              <mxPoint x="550" y="1100" />
              <mxPoint x="600" y="1110" />
            </Array>
          </mxGeometry>
        </mxCell>
        <mxCell id="YN9iQ5xHjwX4GJ1VdmRE-101" value="fibonacci.c12.consttree" style="rounded=1;whiteSpace=wrap;html=1;" vertex="1" parent="1">
          <mxGeometry x="417.5" y="1260" width="170" height="35" as="geometry" />
        </mxCell>
        <mxCell id="YN9iQ5xHjwX4GJ1VdmRE-102" value="fibonacci.c12.verkey.json" style="rounded=1;whiteSpace=wrap;html=1;" vertex="1" parent="1">
          <mxGeometry x="610" y="1260" width="170" height="35" as="geometry" />
        </mxCell>
        <mxCell id="YN9iQ5xHjwX4GJ1VdmRE-103" value="" style="endArrow=classic;html=1;rounded=0;exitX=0.375;exitY=1;exitDx=0;exitDy=0;entryX=0.5;entryY=0;entryDx=0;entryDy=0;" edge="1" parent="1" source="YN9iQ5xHjwX4GJ1VdmRE-98" target="YN9iQ5xHjwX4GJ1VdmRE-101">
          <mxGeometry width="50" height="50" relative="1" as="geometry">
            <mxPoint x="370" y="1280" as="sourcePoint" />
            <mxPoint x="420" y="1230" as="targetPoint" />
          </mxGeometry>
        </mxCell>
        <mxCell id="YN9iQ5xHjwX4GJ1VdmRE-104" value="" style="endArrow=classic;html=1;rounded=0;exitX=0.625;exitY=1;exitDx=0;exitDy=0;entryX=0.25;entryY=0;entryDx=0;entryDy=0;" edge="1" parent="1" source="YN9iQ5xHjwX4GJ1VdmRE-98" target="YN9iQ5xHjwX4GJ1VdmRE-102">
          <mxGeometry width="50" height="50" relative="1" as="geometry">
            <mxPoint x="770" y="1220" as="sourcePoint" />
            <mxPoint x="820" y="1170" as="targetPoint" />
          </mxGeometry>
        </mxCell>
        <mxCell id="YN9iQ5xHjwX4GJ1VdmRE-105" value="13. main_prover.js" style="shape=hexagon;perimeter=hexagonPerimeter2;whiteSpace=wrap;html=1;fixedSize=1;fillColor=#d5e8d4;strokeColor=#82b366;" vertex="1" parent="1">
          <mxGeometry x="80" y="1280" width="198" height="40" as="geometry" />
        </mxCell>
        <mxCell id="YN9iQ5xHjwX4GJ1VdmRE-106" value="" style="endArrow=classic;html=1;rounded=0;exitX=0.75;exitY=1;exitDx=0;exitDy=0;entryX=0.375;entryY=0;entryDx=0;entryDy=0;" edge="1" parent="1" source="YN9iQ5xHjwX4GJ1VdmRE-86" target="YN9iQ5xHjwX4GJ1VdmRE-105">
          <mxGeometry width="50" height="50" relative="1" as="geometry">
            <mxPoint x="-20" y="1300" as="sourcePoint" />
            <mxPoint x="30" y="1250" as="targetPoint" />
          </mxGeometry>
        </mxCell>
        <mxCell id="YN9iQ5xHjwX4GJ1VdmRE-107" value="" style="endArrow=classic;html=1;rounded=0;entryX=0.711;entryY=-0.018;entryDx=0;entryDy=0;entryPerimeter=0;exitX=0.25;exitY=1;exitDx=0;exitDy=0;" edge="1" parent="1" source="YN9iQ5xHjwX4GJ1VdmRE-93" target="YN9iQ5xHjwX4GJ1VdmRE-105">
          <mxGeometry width="50" height="50" relative="1" as="geometry">
            <mxPoint x="330" y="1300" as="sourcePoint" />
            <mxPoint x="380" y="1250" as="targetPoint" />
          </mxGeometry>
        </mxCell>
        <mxCell id="YN9iQ5xHjwX4GJ1VdmRE-108" value="" style="endArrow=classic;html=1;rounded=0;exitX=0.5;exitY=1;exitDx=0;exitDy=0;" edge="1" parent="1" source="YN9iQ5xHjwX4GJ1VdmRE-76" target="YN9iQ5xHjwX4GJ1VdmRE-105">
          <mxGeometry width="50" height="50" relative="1" as="geometry">
            <mxPoint x="160" y="1210" as="sourcePoint" />
            <mxPoint x="210" y="1160" as="targetPoint" />
          </mxGeometry>
        </mxCell>
        <mxCell id="YN9iQ5xHjwX4GJ1VdmRE-109" value="" style="endArrow=classic;html=1;rounded=0;exitX=0;exitY=0.5;exitDx=0;exitDy=0;entryX=1;entryY=0.25;entryDx=0;entryDy=0;" edge="1" parent="1" source="YN9iQ5xHjwX4GJ1VdmRE-101" target="YN9iQ5xHjwX4GJ1VdmRE-105">
          <mxGeometry width="50" height="50" relative="1" as="geometry">
            <mxPoint x="330" y="1380" as="sourcePoint" />
            <mxPoint x="380" y="1330" as="targetPoint" />
          </mxGeometry>
        </mxCell>
        <mxCell id="YN9iQ5xHjwX4GJ1VdmRE-110" value="" style="curved=1;endArrow=classic;html=1;rounded=0;entryX=0.625;entryY=0;entryDx=0;entryDy=0;exitX=0.25;exitY=1;exitDx=0;exitDy=0;" edge="1" parent="1" source="YN9iQ5xHjwX4GJ1VdmRE-77" target="YN9iQ5xHjwX4GJ1VdmRE-105">
          <mxGeometry width="50" height="50" relative="1" as="geometry">
            <mxPoint x="-10" y="1320" as="sourcePoint" />
            <mxPoint x="40" y="1270" as="targetPoint" />
            <Array as="points">
              <mxPoint x="190" y="1090" />
              <mxPoint x="190" y="1220" />
            </Array>
          </mxGeometry>
        </mxCell>
        <mxCell id="YN9iQ5xHjwX4GJ1VdmRE-113" value="fibonacci.c12.proof.json" style="rounded=1;whiteSpace=wrap;html=1;" vertex="1" parent="1">
          <mxGeometry x="-100" y="1370" width="170" height="35" as="geometry" />
        </mxCell>
        <mxCell id="YN9iQ5xHjwX4GJ1VdmRE-114" value="fibonacci.c12.proof.zkin.json" style="rounded=1;whiteSpace=wrap;html=1;" vertex="1" parent="1">
          <mxGeometry x="94" y="1370" width="170" height="35" as="geometry" />
        </mxCell>
        <mxCell id="YN9iQ5xHjwX4GJ1VdmRE-115" value="fibonacci.c12.public.json" style="rounded=1;whiteSpace=wrap;html=1;" vertex="1" parent="1">
          <mxGeometry x="278" y="1370" width="170" height="35" as="geometry" />
        </mxCell>
        <mxCell id="YN9iQ5xHjwX4GJ1VdmRE-116" value="" style="endArrow=classic;html=1;rounded=0;entryX=0.75;entryY=0;entryDx=0;entryDy=0;exitX=0.283;exitY=1.018;exitDx=0;exitDy=0;exitPerimeter=0;" edge="1" parent="1" source="YN9iQ5xHjwX4GJ1VdmRE-105" target="YN9iQ5xHjwX4GJ1VdmRE-113">
          <mxGeometry width="50" height="50" relative="1" as="geometry">
            <mxPoint x="-30" y="1350" as="sourcePoint" />
            <mxPoint x="20" y="1300" as="targetPoint" />
          </mxGeometry>
        </mxCell>
        <mxCell id="YN9iQ5xHjwX4GJ1VdmRE-117" value="" style="endArrow=classic;html=1;rounded=0;exitX=0.5;exitY=1;exitDx=0;exitDy=0;entryX=0.5;entryY=0;entryDx=0;entryDy=0;" edge="1" parent="1" source="YN9iQ5xHjwX4GJ1VdmRE-105" target="YN9iQ5xHjwX4GJ1VdmRE-114">
          <mxGeometry width="50" height="50" relative="1" as="geometry">
            <mxPoint x="10" y="1330" as="sourcePoint" />
            <mxPoint x="60" y="1280" as="targetPoint" />
          </mxGeometry>
        </mxCell>
        <mxCell id="YN9iQ5xHjwX4GJ1VdmRE-118" value="" style="endArrow=classic;html=1;rounded=0;exitX=0.625;exitY=1;exitDx=0;exitDy=0;entryX=0.545;entryY=0.034;entryDx=0;entryDy=0;entryPerimeter=0;" edge="1" parent="1" source="YN9iQ5xHjwX4GJ1VdmRE-105" target="YN9iQ5xHjwX4GJ1VdmRE-115">
          <mxGeometry width="50" height="50" relative="1" as="geometry">
            <mxPoint x="-10" y="1340" as="sourcePoint" />
            <mxPoint x="40" y="1290" as="targetPoint" />
          </mxGeometry>
        </mxCell>
        <mxCell id="YN9iQ5xHjwX4GJ1VdmRE-119" value="14. main_verifier.js" style="shape=hexagon;perimeter=hexagonPerimeter2;whiteSpace=wrap;html=1;fixedSize=1;fillColor=#d5e8d4;strokeColor=#82b366;" vertex="1" parent="1">
          <mxGeometry x="80" y="1460" width="198" height="40" as="geometry" />
        </mxCell>
        <mxCell id="YN9iQ5xHjwX4GJ1VdmRE-120" value="" style="endArrow=classic;html=1;rounded=0;exitX=0.464;exitY=1.027;exitDx=0;exitDy=0;exitPerimeter=0;entryX=0.375;entryY=0;entryDx=0;entryDy=0;" edge="1" parent="1" source="YN9iQ5xHjwX4GJ1VdmRE-113" target="YN9iQ5xHjwX4GJ1VdmRE-119">
          <mxGeometry width="50" height="50" relative="1" as="geometry">
            <mxPoint x="-20" y="1510" as="sourcePoint" />
            <mxPoint x="30" y="1460" as="targetPoint" />
          </mxGeometry>
        </mxCell>
        <mxCell id="YN9iQ5xHjwX4GJ1VdmRE-121" value="" style="endArrow=classic;html=1;rounded=0;entryX=0.625;entryY=0;entryDx=0;entryDy=0;exitX=0.5;exitY=1;exitDx=0;exitDy=0;" edge="1" parent="1" source="YN9iQ5xHjwX4GJ1VdmRE-115" target="YN9iQ5xHjwX4GJ1VdmRE-119">
          <mxGeometry width="50" height="50" relative="1" as="geometry">
            <mxPoint x="450" y="1510" as="sourcePoint" />
            <mxPoint x="500" y="1460" as="targetPoint" />
          </mxGeometry>
        </mxCell>
        <mxCell id="YN9iQ5xHjwX4GJ1VdmRE-122" value="" style="curved=1;endArrow=classic;html=1;rounded=0;entryX=0;entryY=0.5;entryDx=0;entryDy=0;" edge="1" parent="1" target="YN9iQ5xHjwX4GJ1VdmRE-119">
          <mxGeometry width="50" height="50" relative="1" as="geometry">
            <mxPoint x="-20" y="1200" as="sourcePoint" />
            <mxPoint x="-40" y="1270" as="targetPoint" />
            <Array as="points">
              <mxPoint x="-60" y="1260" />
              <mxPoint x="-90" y="1270" />
              <mxPoint x="-150" y="1450" />
            </Array>
          </mxGeometry>
        </mxCell>
        <mxCell id="YN9iQ5xHjwX4GJ1VdmRE-123" value="" style="curved=1;endArrow=classic;html=1;rounded=0;exitX=0;exitY=0.5;exitDx=0;exitDy=0;" edge="1" parent="1" source="YN9iQ5xHjwX4GJ1VdmRE-76">
          <mxGeometry width="50" height="50" relative="1" as="geometry">
            <mxPoint x="-140" y="1150" as="sourcePoint" />
            <mxPoint x="-80" y="1270" as="targetPoint" />
            <Array as="points">
              <mxPoint x="70" y="1060" />
              <mxPoint x="20" y="1070" />
              <mxPoint x="-30" y="1090" />
              <mxPoint x="-60" y="1120" />
              <mxPoint x="-70" y="1150" />
            </Array>
          </mxGeometry>
        </mxCell>
        <mxCell id="YN9iQ5xHjwX4GJ1VdmRE-124" value="" style="curved=1;endArrow=classic;html=1;rounded=0;entryX=1;entryY=0.5;entryDx=0;entryDy=0;exitX=0.25;exitY=1;exitDx=0;exitDy=0;" edge="1" parent="1" source="YN9iQ5xHjwX4GJ1VdmRE-102" target="YN9iQ5xHjwX4GJ1VdmRE-119">
          <mxGeometry width="50" height="50" relative="1" as="geometry">
            <mxPoint x="630" y="1420" as="sourcePoint" />
            <mxPoint x="680" y="1370" as="targetPoint" />
            <Array as="points">
              <mxPoint x="590" y="1350" />
              <mxPoint x="570" y="1370" />
            </Array>
          </mxGeometry>
        </mxCell>
        <mxCell id="YN9iQ5xHjwX4GJ1VdmRE-125" value="true/false" style="rounded=1;whiteSpace=wrap;html=1;" vertex="1" parent="1">
          <mxGeometry x="119" y="1530" width="120" height="35" as="geometry" />
        </mxCell>
        <mxCell id="YN9iQ5xHjwX4GJ1VdmRE-126" value="" style="endArrow=classic;html=1;rounded=0;exitX=0.5;exitY=1;exitDx=0;exitDy=0;entryX=0.5;entryY=0;entryDx=0;entryDy=0;" edge="1" parent="1" source="YN9iQ5xHjwX4GJ1VdmRE-119" target="YN9iQ5xHjwX4GJ1VdmRE-125">
          <mxGeometry width="50" height="50" relative="1" as="geometry">
            <mxPoint x="300" y="1570" as="sourcePoint" />
            <mxPoint x="350" y="1520" as="targetPoint" />
          </mxGeometry>
        </mxCell>
        <mxCell id="YN9iQ5xHjwX4GJ1VdmRE-127" value="15. groth16Prover" style="shape=hexagon;perimeter=hexagonPerimeter2;whiteSpace=wrap;html=1;fixedSize=1;fillColor=#d5e8d4;strokeColor=#82b366;" vertex="1" parent="1">
          <mxGeometry x="80" y="1590" width="198" height="40" as="geometry" />
        </mxCell>
        <mxCell id="YN9iQ5xHjwX4GJ1VdmRE-128" value="" style="curved=1;endArrow=classic;html=1;rounded=0;entryX=0;entryY=0.25;entryDx=0;entryDy=0;exitX=0.25;exitY=1;exitDx=0;exitDy=0;" edge="1" parent="1" source="YN9iQ5xHjwX4GJ1VdmRE-113" target="YN9iQ5xHjwX4GJ1VdmRE-127">
          <mxGeometry width="50" height="50" relative="1" as="geometry">
            <mxPoint x="-80" y="1620" as="sourcePoint" />
            <mxPoint x="-30" y="1570" as="targetPoint" />
            <Array as="points">
              <mxPoint x="10" y="1540" />
            </Array>
          </mxGeometry>
        </mxCell>
        <mxCell id="YN9iQ5xHjwX4GJ1VdmRE-129" value="" style="curved=1;endArrow=classic;html=1;rounded=0;entryX=1;entryY=0.25;entryDx=0;entryDy=0;exitX=0.666;exitY=0.973;exitDx=0;exitDy=0;exitPerimeter=0;" edge="1" parent="1" source="YN9iQ5xHjwX4GJ1VdmRE-115" target="YN9iQ5xHjwX4GJ1VdmRE-127">
          <mxGeometry width="50" height="50" relative="1" as="geometry">
            <mxPoint x="260" y="1730" as="sourcePoint" />
            <mxPoint x="310" y="1680" as="targetPoint" />
            <Array as="points">
              <mxPoint x="310" y="1520" />
              <mxPoint x="290" y="1570" />
            </Array>
          </mxGeometry>
        </mxCell>
        <mxCell id="YN9iQ5xHjwX4GJ1VdmRE-131" value="groth16 proof" style="rounded=1;whiteSpace=wrap;html=1;" vertex="1" parent="1">
          <mxGeometry x="113" y="1660" width="120" height="35" as="geometry" />
        </mxCell>
        <mxCell id="YN9iQ5xHjwX4GJ1VdmRE-136" value="" style="endArrow=classic;html=1;rounded=0;entryX=0.5;entryY=0;entryDx=0;entryDy=0;exitX=0.466;exitY=1.018;exitDx=0;exitDy=0;exitPerimeter=0;" edge="1" parent="1" source="YN9iQ5xHjwX4GJ1VdmRE-127" target="YN9iQ5xHjwX4GJ1VdmRE-131">
          <mxGeometry width="50" height="50" relative="1" as="geometry">
            <mxPoint x="10" y="1700" as="sourcePoint" />
            <mxPoint x="60" y="1650" as="targetPoint" />
          </mxGeometry>
        </mxCell>
        <mxCell id="YN9iQ5xHjwX4GJ1VdmRE-137" value="16. L1 contract Verifier" style="shape=hexagon;perimeter=hexagonPerimeter2;whiteSpace=wrap;html=1;fixedSize=1;fillColor=#d5e8d4;strokeColor=#82b366;" vertex="1" parent="1">
          <mxGeometry x="285" y="1657.5" width="156" height="40" as="geometry" />
        </mxCell>
        <mxCell id="YN9iQ5xHjwX4GJ1VdmRE-138" value="" style="endArrow=classic;html=1;rounded=0;exitX=1;exitY=0.5;exitDx=0;exitDy=0;entryX=0;entryY=0.5;entryDx=0;entryDy=0;" edge="1" parent="1" source="YN9iQ5xHjwX4GJ1VdmRE-131" target="YN9iQ5xHjwX4GJ1VdmRE-137">
          <mxGeometry width="50" height="50" relative="1" as="geometry">
            <mxPoint x="250" y="1760" as="sourcePoint" />
            <mxPoint x="300" y="1710" as="targetPoint" />
          </mxGeometry>
        </mxCell>
        <mxCell id="YN9iQ5xHjwX4GJ1VdmRE-139" value="true/false" style="rounded=1;whiteSpace=wrap;html=1;" vertex="1" parent="1">
          <mxGeometry x="480" y="1660" width="120" height="35" as="geometry" />
        </mxCell>
        <mxCell id="YN9iQ5xHjwX4GJ1VdmRE-140" value="" style="endArrow=classic;html=1;rounded=0;exitX=1;exitY=0.5;exitDx=0;exitDy=0;entryX=0;entryY=0.5;entryDx=0;entryDy=0;" edge="1" parent="1" source="YN9iQ5xHjwX4GJ1VdmRE-137" target="YN9iQ5xHjwX4GJ1VdmRE-139">
          <mxGeometry width="50" height="50" relative="1" as="geometry">
            <mxPoint x="480" y="1780" as="sourcePoint" />
            <mxPoint x="530" y="1730" as="targetPoint" />
          </mxGeometry>
        </mxCell>
      </root>
    </mxGraphModel>
  </diagram>
</mxfile>
